<?xml version="1.0" encoding="UTF-8"?>
<svg id="Calque_1" xmlns="http://www.w3.org/2000/svg" xmlns:xlink="http://www.w3.org/1999/xlink" version="1.1" viewBox="0 0 1360 908">
  <!-- Generator: Adobe Illustrator 29.8.2, SVG Export Plug-In . SVG Version: 2.1.1 Build 3)  -->
  <defs>
    <style>
      .st0 {
        fill: none;
      }

      .st1, .st2, .st3, .st4, .st5, .st6, .st7, .st8 {
        isolation: isolate;
      }

      .st1, .st2, .st4, .st5, .st6, .st7, .st8 {
        font-family: ArialMT, Arial;
        font-size: 195px;
      }

      .st1, .st9 {
        fill: blue;
      }

      .st10 {
        fill: #afa1a6;
      }

      .st2, .st11 {
        fill: #f8eee5;
      }

      .st12 {
        fill: #310f10;
      }

      .st13, .st5 {
        fill: #fc4c14;
      }

      .st14 {
        clip-path: url(#clippath-1);
      }

      .st15 {
        clip-path: url(#clippath-3);
      }

      .st16 {
        clip-path: url(#clippath-4);
      }

      .st17 {
        clip-path: url(#clippath-2);
      }

      .st18 {
        clip-path: url(#clippath-5);
      }

      .st19, .st8 {
        fill: #fff;
      }

      .st20 {
        fill: #087f08;
      }

      .st21 {
        fill: #fffefa;
      }

      .st4 {
        fill: #e6344f;
      }

      .st22 {
        fill: #27660b;
      }

      .st23 {
        fill: #ded10e;
      }

      .st24 {
        fill: #199919;
      }

      .st6 {
        fill: #dc92b4;
      }

      .st7 {
        fill: #edff42;
      }

      .st25 {
        fill: #ff8dea;
      }

      .st26 {
        fill: #5c0204;
      }

      .st27 {
        fill: #ff9feb;
      }

      .st28 {
        display: none;
      }

      .st29 {
        clip-path: url(#clippath);
      }
    </style>
    <clipPath id="clippath">
      <circle class="st0" cx="677.98" cy="2436.94" r="431.5"/>
    </clipPath>
    <clipPath id="clippath-1">
      <circle class="st0" cx="-748.02" cy="1428.94" r="431.5"/>
    </clipPath>
    <clipPath id="clippath-2">
      <circle class="st0" cx="671.98" cy="454.94" r="431.5"/>
    </clipPath>
    <clipPath id="clippath-3">
      <circle class="st0" cx="-882.63" cy="414.3" r="431.5"/>
    </clipPath>
    <clipPath id="clippath-4">
      <circle class="st0" cx="-753.02" cy="2432.94" r="431.5"/>
    </clipPath>
    <clipPath id="clippath-5">
      <circle class="st0" cx="-2201.02" cy="2432.94" r="431.5"/>
    </clipPath>
  </defs>
  <rect class="st11" x="-7732.52" y="4907.44" width="1366" height="912"/>
  <g class="st3">
    <text class="st5" transform="translate(-7344.74 5432.58)"><tspan x="0" y="0">ALN</tspan></text>
  </g>
  <rect class="st22" x="-7732.52" y="6949.44" width="1366" height="912"/>
  <g class="st3">
    <text class="st6" transform="translate(-7344.74 7474.58)"><tspan x="0" y="0">ALN</tspan></text>
  </g>
  <rect class="st22" x="-6264.52" y="5918.44" width="1366" height="912"/>
  <g class="st3">
    <text class="st6" transform="translate(-5876.74 6443.58)"><tspan x="0" y="0">ALN</tspan></text>
  </g>
  <rect class="st9" x="-4785.52" y="6949.44" width="1366" height="912"/>
  <g class="st3">
    <text class="st7" transform="translate(-4397.74 7474.58)"><tspan x="0" y="0">ALN</tspan></text>
  </g>
  <rect class="st11" x="-6264.52" y="4907.44" width="1366" height="912"/>
  <g class="st3">
    <text class="st1" transform="translate(-5876.74 5469.58)"><tspan x="0" y="0">ALN</tspan></text>
  </g>
  <g class="st28">
    <rect class="st23" x="-3271.52" y="5918.44" width="1366" height="912"/>
  </g>
  <rect class="st10" x="-4785.52" y="5918.44" width="1366" height="912"/>
  <g class="st3">
    <text class="st4" transform="translate(-4397.74 6443.58)"><tspan x="0" y="0">ALN</tspan></text>
  </g>
  <rect x="-4785.52" y="4907.44" width="1366" height="912"/>
  <g class="st3">
    <text class="st8" transform="translate(-4397.74 5432.58)"><tspan x="0" y="0">ALN</tspan></text>
  </g>
  <rect class="st13" x="-6264.52" y="6949.44" width="1366" height="912"/>
  <g class="st3">
    <text class="st2" transform="translate(-5876.74 7474.58)"><tspan x="0" y="0">ALN</tspan></text>
  </g>
  <rect class="st9" x="-6264.52" y="3055.44" width="1360" height="908"/>
  <g>
    <path class="st19" d="M-5826.4,3473.62c-12.36-39.3-34.23-72.59-56.1-72.59-27.26,0-16.8,72.59,19.97,56.1l.63.63-38.67,38.67v-140.74l.95-.63c36.77,36.77,78.93,83.37,112.84,175.29l25.67-34.55,8.56,8.56-71.64,78.29-2.22-2.22c9.83-14.9,12.04-38.67,9.19-64.34-28.53,39.3-51.67,126.15-69.73,126.15-23.14,0-24.41-127.42,60.54-168.63h.01ZM-5817.84,3511.34c-1.58-10.78-3.8-21.55-6.97-32.02-37.4,17.75-62.13,62.44-62.13,97.94,0,8.24,4.44,16.8,11.09,16.8,21.55,0,34.87-52.62,58.01-82.73h0ZM-5860.95,3641.62c0-29.16,43.74-48.5,152.46-60.54v.63c-32.65,5.07-57.69,10.14-76.39,15.53-6.34,2.85-4.44,11.73-3.17,17.43.32,1.9.32,5.7-1.27,5.7-1.9,0-2.22-2.85-1.58-6.02.32-2.22,1.27-4.44.63-9.19-.95-6.66-1.9-5.7-10.78-3.17-28.53,10.14-37.4,21.55-37.4,35.82s12.68,19.34,30.11,19.34c26.31,0,51.03-7.61,72.59-19.97,22.51-13.31,38.35-31.38,38.35-51.35,0-28.53-17.43-47.55-38.35-47.86-7.92,0-9.19,2.54-6.97,19.65.95,7.29,1.9,16.48-2.54,16.48-3.49,0-2.54-9.51-.95-17.43,2.85-13.31,1.9-18.7-7.29-15.21-13,5.7-26.31,18.38-40.26,42.16l1.9-22.19c18.7-24.41,33.92-34.23,49.13-34.23,25.36,0,45.01,25.99,53.89,51.98,13.63,40.26,25.67,76.39,72.59,76.39,5.07,0,9.83-.63,16.17-3.17-11.09,8.56-24.09,12.68-35.82,12.68-38.67,0-55.15-35.18-55.47-79.24h-.63c-.63,12.68-5.39,23.14-12.04,31.38-6.34,10.78-1.9,28.85-1.9,32.33,0,1.9-3.49,1.59-3.17-3.49.32-5.71,1.9-22.51-3.49-19.34-5.71,5.07-12.36,9.51-19.02,13.63-25.67,16.48-59.91,25.68-89.7,25.68-22.82,0-39.62-7.29-39.62-24.41h0ZM-5762.05,3482.49l16.48-16.17c-23.77-7.92-41.21-15.21-52.93-22.51-11.73-6.97-17.75-13.95-17.75-21.24,0-10.46,12.68-22.19,37.72-34.55,16.48-8.24,31.38-12.36,44.69-12.36,14.26,0,24.09,4.12,39.31,11.73,9.19,4.44,16.17,7.29,20.29,8.56l31.38-31.06h-173.38v-12.36h206.98c2.22,0,3.8,0,5.07.32s1.9.63,1.9,1.27-.63,1.9-2.22,3.49c-1.58,1.9-2.85,3.17-3.49,4.12-3.17,3.17-5.7,6.02-7.61,8.24l-128.37,130.28-18.07-17.75h0ZM-5721.16,3442.24l-11.09-14.26c14.26,0,24.72-6.66,24.72-14.26,0-3.49-2.22-6.66-6.97-9.19s-11.41-3.8-20.29-3.8c-35.82,0-53.25.95-53.25,18.07,0,4.75,2.85,9.19,8.88,13.31,5.71,4.12,14.58,9.83,26.63,16.48l15.85,8.87,15.53-15.21h0ZM-5637.48,3535.43c-9.19,25.36-20.29,36.13-32.33,36.13-19.34,0-61.49-67.52-37.4-90.65,7.61-7.29,25.04-11.41,96.68-29.16,6.34-15.85,8.88-22.51,11.73-30.11,3.49-9.51-7.29-15.53-14.9-15.53-28.53,0-53.57,28.21-27.89,38.99l-10.46,9.83c-23.77-.95-12.04-27.89,13-43.11,31.38-19.02,55.15-7.29,49.45,7.29l-24.41,64.03c-26.63,72.27-25.04,142.95,4.44,142.95,14.58,0,19.97-14.9,19.97-29.16,0-12.68-4.75-22.51-12.04-30.75l3.17-13.95c6.66,9.19,10.78,22.19,10.78,41.21,0,20.29-6.66,40.26-19.97,40.26-16.17,0-38.04-41.52-29.8-98.26h-.02ZM-5623.85,3485.35l12.68-31.7c-58.01,13.95-88.75,28.53-94.77,43.43-11.09,27.26,13.95,62.76,36.13,62.76,33.6,0,31.7-38.99,45.96-74.49Z"/>
    <path class="st19" d="M-5566.17,3490.1c-8.88-1.58-16.8-6.97-16.8-19.02,0-9.19,7.92-16.17,22.82-17.12,4.44-25.99,8.24-48.5,9.83-63.4h2.54c-2.22,21.56-4.44,43.11-6.34,63.4h65.93v4.44h-66.25c-7.61,83.05-10.46,148.98,4.12,148.98,19.97,0,62.13-82.1,113.16-101.12l.63,2.54c-51.35,20.92-113.16,136.62-136.62,136.62-16.8,0-5.07-81.15,6.97-155.32h0ZM-5579.8,3468.87c0,6.66,8.56,9.19,15.85,9.19l3.17-19.97c-13.95.95-19.02,4.44-19.02,10.78ZM-5447.31,3630.2c-8.24-22.19-16.48-46.59-30.75-50.72-2.22,0-3.49,2.54-4.12,6.34-.63,4.75.32,6.97.63,9.19.32,3.17.32,6.02-1.58,6.02-1.59,0-1.59-3.8-1.27-5.7.63-5.07,3.49-14.9-1.27-16.17-5.7.95-12.36,5.07-19.97,13-35.82,36.77-68.15,71.64-15.21,70.37-42.16,6.02-60.86,2.22-39.3-19.33,44.38-45.01,79.56-79.56,123.94-124.89,10.14-10.14,13.31-4.75,41.84,23.46-7.92-5.39-17.12-13-24.09-15.53-10.78-2.85-11.41,5.07-8.88,17.75,1.59,7.92,2.54,17.43-.95,17.43-4.44,0-3.49-9.19-2.54-16.48,2.85-21.24-2.22-24.09-14.58-11.73-19.33,18.07-15.21,65.93-.63,94.77,7.92,15.22,16.17,20.6,25.36,20.6,21.24,0,47.23-26.63,83.05-29.16,17.43-1.27,26.63,10.78,27.58,46.59h-1.59c-.63-13.63-2.53-23.14-5.39-29.48-4.76-8.56-6.02-4.75-5.07,3.17l.95,8.56c.32,2.54.32,4.44-1.27,4.44-2.22,0,0-9.51-.32-13.95-.32-5.7-1.9-11.41-7.29-11.73h-1.27c-31.06,2.22-59.27,38.99-83.36,38.99-12.04,0-22.82-9.19-32.65-35.82h0ZM-5430.51,3496.76l-9.83-9.83c-.63-.63-1.27-1.9-1.27-2.85v-110.94c0-2.54-2.22-4.75-4.75-4.75h-81.46c-6.66,0-9.51,6.97-4.76,11.73l49.76,49.76c4.75,4.75,11.73,1.9,11.73-4.76v-31.38c0-2.54-2.22-4.76-4.76-4.76h-6.66c-6.97,0-10.78,6.34-6.66,10.14l9.83,9.19c.95.95,1.27,1.9,1.27,2.85,0,4.44-6.66,4.76-11.41.32l-23.14-21.87c-5.07-4.76-1.9-12.05,4.76-12.05h49.76c2.53,0,4.75,2.22,4.75,4.75v75.12c0,6.66-6.97,9.51-11.73,4.76l-96.68-96.68c-4.75-4.75-1.9-11.73,4.75-11.73h259.92c6.66,0,9.51,6.97,4.76,11.73l-96.68,96.68c-4.75,4.75-11.73,1.9-11.73-4.76v-75.12c0-2.54,2.22-4.75,4.76-4.75h49.76c6.66,0,9.83,7.29,4.76,12.05l-23.14,21.87c-4.75,4.44-11.41,4.12-11.41-.32,0-.95.32-1.9,1.27-2.85l9.83-9.19c4.12-3.8.32-10.14-6.66-10.14h-6.66c-2.54,0-4.75,2.22-4.75,4.76v31.38c0,6.66,6.97,9.51,11.73,4.76l49.76-49.76c4.76-4.75,1.9-11.73-4.75-11.73h-81.46c-2.53,0-4.75,2.22-4.75,4.75v110.94c0,.95-.63,2.22-1.27,2.85l-9.83,9.83c-.95.95-2.22,1.58-3.49,1.58s-2.53-.63-3.49-1.58h.02ZM-5380.43,3520.21c0-11.41,16.48-32.02,46.91-39.3-20.92,0-37.09.32-44.69.95-9.51,7.29-15.85,10.78-19.65,8.56-2.85-1.58-3.49-4.12-1.59-6.97,1.9-3.17,4.44-3.17,18.07-3.8,42.79-28.85,90.34-77.34,93.19-104.28l15.21,4.44c-6.02,23.14-57.37,69.42-103.33,99.53,8.56-.32,52.3-1.27,105.87-.95,1.9,0,1.58,6.02-.32,5.7-15.21-1.58-28.85-2.85-42.47-3.17-34.87-.95-56.42,25.67-56.42,39.3,0,38.99,33.6,86.85,68.15,86.85,16.17,0,26.94-3.49,26.63-31.38-.32-19.97-16.8-30.43-33.28-6.66l-9.19-8.24c8.24-25.99,43.11-17.12,44.06,14.9.95,33.92-9.51,42.16-24.72,42.16-20.29,0-82.41-57.37-82.41-97.63h-.02Z"/>
  </g>
  <rect class="st9" x="-7732.52" y="5918.44" width="1366" height="912"/>
  <g class="st3">
    <text class="st8" transform="translate(-7344.74 6443.58)"><tspan x="0" y="0">ALN</tspan></text>
  </g>
  <rect class="st23" x="-4562.52" y="3053.44" width="1366" height="912"/>
  <g>
    <path class="st26" d="M-4017.07,3633.96c-24.34,0-45.67-6-64-18-18.34-12-32.67-28.08-43-48.25-10.34-20.16-15.5-42.41-15.5-66.75s6.08-46.5,18.25-66.5c12.16-20,28.58-36,49.25-48,20.66-12,44-18,70-18s50.33,5.75,71,17.25c20.66,11.5,36.91,27.17,48.75,47,11.83,19.84,17.75,42.59,17.75,68.25v125.5h-85v-87.5h25c0,18.34-3.67,34.67-11,49-7.34,14.34-17.84,25.59-31.5,33.75-13.67,8.16-30.34,12.25-50,12.25h0ZM-4002.07,3549.46c9.66,0,18-2.16,25-6.5,7-4.33,12.5-10.16,16.5-17.5,4-7.33,6-15.33,6-24s-2-17.16-6-24.5c-4-7.33-9.5-13.16-16.5-17.5-7-4.33-15.34-6.5-25-6.5s-17.59,2.17-24.75,6.5c-7.17,4.34-12.75,10.17-16.75,17.5-4,7.34-6,15.5-6,24.5s2,16.67,6,24c4,7.34,9.58,13.17,16.75,17.5,7.16,4.34,15.41,6.5,24.75,6.5Z"/>
    <path class="st26" d="M-3620.08,3451.46h-214.5v-75h214.5v75ZM-3672.58,3634.46c-27,0-49.34-4.92-67-14.75-17.67-9.83-30.84-23.41-39.5-40.75-8.67-17.33-13-37-13-59v-206h90v203c0,12,3.41,21.25,10.25,27.75,6.83,6.5,16.08,9.75,27.75,9.75,6.33,0,13.75-.83,22.25-2.5,8.5-1.66,15.75-4.16,21.75-7.5v79.5c-6.34,3.33-14.5,5.91-24.5,7.75-10,1.83-19.34,2.75-28,2.75Z"/>
  </g>
  <rect class="st9" x="-1348.52" y="3053.44" width="1366" height="912"/>
  <g>
    <path class="st23" d="M-814.1,5568.71c-18.74-59.58-51.9-110.04-85.05-110.04-41.33,0-25.47,110.04,30.27,85.05l.96.96-58.62,58.62v-213.35l1.44-.96c55.74,55.74,119.65,126.38,171.07,265.73l38.92-52.38,12.98,12.98-108.6,118.69-3.36-3.36c14.9-22.58,18.26-58.62,13.94-97.54-43.25,59.59-78.33,191.25-105.72,191.25-35.08,0-37-193.17,91.78-255.64h-.01ZM-801.13,5625.9c-2.4-16.34-5.77-32.68-10.57-48.53-56.7,26.91-94.18,94.66-94.18,148.48,0,12.49,6.73,25.47,16.82,25.47,32.68,0,52.86-79.77,87.94-125.42h-.01ZM-484.64,5651.36c-14.88,41.06-32.85,58.52-52.36,58.52-31.31,0-99.58-109.34-60.57-146.81,12.32-11.81,40.55-18.48,156.57-47.23,10.27-25.67,14.37-36.45,18.99-48.77,5.65-15.4-11.8-25.16-24.13-25.16-46.2,0-86.75,45.69-45.17,63.14l-16.94,15.91c-38.5-1.54-19.51-45.17,21.05-69.81,50.82-30.8,89.32-11.81,80.08,11.81l-39.53,103.69c-43.12,117.04-40.55,231.51,7.19,231.51,23.61,0,32.34-24.13,32.34-47.23,0-20.53-7.7-36.45-19.51-49.79l5.13-22.59c10.78,14.89,17.45,35.93,17.45,66.73,0,32.85-10.78,65.19-32.34,65.19-26.18,0-61.6-67.24-48.25-159.13v.02ZM-462.56,5570.25l20.53-51.33c-93.94,22.59-143.73,46.2-153.48,70.33-17.97,44.15,22.59,101.64,58.52,101.64,54.41,0,51.33-63.14,74.43-120.63h0Z"/>
    <path class="st23" d="M-670.66,5583.47l-15.91-15.91c-1.03-1.03-2.05-3.08-2.05-4.62v-179.66c0-4.11-3.59-7.7-7.7-7.7h-131.93c-10.78,0-15.4,11.29-7.7,18.99l80.59,80.6c7.7,7.7,18.99,3.08,18.99-7.7v-50.82c0-4.11-3.59-7.7-7.7-7.7h-10.78c-11.29,0-17.45,10.27-10.78,16.43l15.91,14.88c1.54,1.54,2.05,3.08,2.05,4.62,0,7.19-10.78,7.7-18.48.51l-37.47-35.42c-8.22-7.7-3.08-19.51,7.7-19.51h80.59c4.11,0,7.7,3.59,7.7,7.7v121.66c0,10.78-11.29,15.4-18.99,7.7l-156.57-156.57c-7.7-7.7-3.08-18.99,7.7-18.99h420.93c10.78,0,15.4,11.3,7.7,18.99l-156.56,156.57c-7.7,7.7-18.99,3.08-18.99-7.7v-121.66c0-4.11,3.59-7.7,7.7-7.7h80.6c10.78,0,15.91,11.81,7.7,19.51l-37.47,35.42c-7.7,7.18-18.48,6.67-18.48-.51,0-1.54.51-3.08,2.05-4.62l15.91-14.88c6.67-6.16.51-16.43-10.78-16.43h-10.78c-4.11,0-7.7,3.59-7.7,7.7v50.82c0,10.78,11.29,15.4,18.99,7.7l80.59-80.6c7.7-7.7,3.08-18.99-7.7-18.99h-131.93c-4.11,0-7.7,3.59-7.7,7.7v179.66c0,1.54-1.03,3.59-2.05,4.62l-15.91,15.91c-1.54,1.54-3.59,2.57-5.65,2.57s-4.11-1.03-5.65-2.57h.01ZM-897.22,5854.57l2.57-2.57c8.21,2.57,15.91,4.62,22.59,4.62,52.87,0,65.19-27.2,103.69-65.71,21.05-21.04,44.66-42.61,61.09-69.3,4.62-9.24,12.83-18.99,23.1-39.01-11.29-3.59-25.67-4.62-47.23,1.54l2.05-2.05c37.47-9.24,41.07-16.94,52.36-13.35,7.7-15.4,15.91-35.42,25.15-62.11l3.59,3.59c-11.29,26.69-20.02,45.17-26.18,59.03,25.15,9.76,47.23,49.28,99.58,14.89l2.57,2.05c-69.81,34.4-81.11,8.22-108.83-2.57-17.45,33.88-10.78,33.37.51,95.48,15.91,87.78,100.61,71.35,154,67.76s55.44,3.08,60.06,8.22l-4.11,1.03c-8.73-6.16-31.83-11.3-71.35-3.59-39.53,7.7-141.68,22.59-158.62-46.71-9.75-40.55-13.35-58.52-10.78-71.35-34.4,37.47-33.88,50.82-40.04,66.21-4.62,13.35-3.59,15.4-2.05,30.8.51,7.7,1.54,16.94-2.57,16.94-3.59,0-2.57-9.24-1.02-17.45,2.57-14.37,2.57-21.56-5.65-11.8-29.77,39.53-49.79,39.53-93.94,41.06-13.86.51-29.26-3.08-40.55-5.65h0ZM-638.5,5728.29c1.54-9.75,3.08-15.4.51-21.04-2.57-6.16-10.27-5.14-25.15-14.38,6.16.51,45.17,8.22,58.01,6.67-18.48,4.62-26.18,6.67-28.75,12.32-2.05,3.59-1.54,8.73,0,16.94.51,3.08.51,9.24-2.05,9.24-3.08,0-3.08-4.62-2.57-9.75Z"/>
  </g>
  <g>
    <path class="st26" d="M655.9,4571.71c-18.74-59.58-51.9-110.04-85.05-110.04-41.33,0-25.47,110.04,30.27,85.05l.96.96-58.62,58.62v-213.35l1.44-.96c55.74,55.74,119.65,126.38,171.07,265.73l38.92-52.38,12.98,12.98-108.6,118.69-3.36-3.36c14.9-22.58,18.26-58.62,13.94-97.54-43.25,59.59-78.33,191.25-105.72,191.25-35.08,0-37-193.17,91.78-255.64h-.01ZM668.87,4628.9c-2.4-16.34-5.77-32.68-10.57-48.53-56.7,26.91-94.18,94.66-94.18,148.48,0,12.49,6.73,25.47,16.82,25.47,32.68,0,52.86-79.77,87.94-125.42h-.01ZM985.36,4654.36c-14.88,41.06-32.85,58.52-52.36,58.52-31.31,0-99.58-109.34-60.57-146.81,12.32-11.81,40.55-18.48,156.57-47.23,10.27-25.67,14.37-36.45,18.99-48.77,5.65-15.4-11.8-25.16-24.13-25.16-46.2,0-86.75,45.69-45.17,63.14l-16.94,15.91c-38.5-1.54-19.51-45.17,21.05-69.81,50.82-30.8,89.32-11.81,80.08,11.81l-39.53,103.69c-43.12,117.04-40.55,231.51,7.19,231.51,23.61,0,32.34-24.13,32.34-47.23,0-20.53-7.7-36.45-19.51-49.79l5.13-22.59c10.78,14.89,17.45,35.93,17.45,66.73,0,32.85-10.78,65.19-32.34,65.19-26.18,0-61.6-67.24-48.25-159.13v.02ZM1007.44,4573.25l20.53-51.33c-93.94,22.59-143.73,46.2-153.48,70.33-17.97,44.15,22.59,101.64,58.52,101.64,54.41,0,51.33-63.14,74.43-120.63h0Z"/>
    <path class="st26" d="M799.34,4586.47l-15.91-15.91c-1.03-1.03-2.05-3.08-2.05-4.62v-179.66c0-4.11-3.59-7.7-7.7-7.7h-131.93c-10.78,0-15.4,11.29-7.7,18.99l80.59,80.6c7.7,7.7,18.99,3.08,18.99-7.7v-50.82c0-4.11-3.59-7.7-7.7-7.7h-10.78c-11.29,0-17.45,10.27-10.78,16.43l15.91,14.88c1.54,1.54,2.05,3.08,2.05,4.62,0,7.19-10.78,7.7-18.48.51l-37.47-35.42c-8.22-7.7-3.08-19.51,7.7-19.51h80.59c4.11,0,7.7,3.59,7.7,7.7v121.66c0,10.78-11.29,15.4-18.99,7.7l-156.57-156.57c-7.7-7.7-3.08-18.99,7.7-18.99h420.93c10.78,0,15.4,11.3,7.7,18.99l-156.56,156.57c-7.7,7.7-18.99,3.08-18.99-7.7v-121.66c0-4.11,3.59-7.7,7.7-7.7h80.6c10.78,0,15.91,11.81,7.7,19.51l-37.47,35.42c-7.7,7.18-18.48,6.67-18.48-.51,0-1.54.51-3.08,2.05-4.62l15.91-14.88c6.67-6.16.51-16.43-10.78-16.43h-10.78c-4.11,0-7.7,3.59-7.7,7.7v50.82c0,10.78,11.29,15.4,18.99,7.7l80.59-80.6c7.7-7.7,3.08-18.99-7.7-18.99h-131.93c-4.11,0-7.7,3.59-7.7,7.7v179.66c0,1.54-1.03,3.59-2.05,4.62l-15.91,15.91c-1.54,1.54-3.59,2.57-5.65,2.57s-4.11-1.03-5.65-2.57h.01ZM572.78,4857.57l2.57-2.57c8.21,2.57,15.91,4.62,22.59,4.62,52.87,0,65.19-27.2,103.69-65.71,21.05-21.04,44.66-42.61,61.09-69.3,4.62-9.24,12.83-18.99,23.1-39.01-11.29-3.59-25.67-4.62-47.23,1.54l2.05-2.05c37.47-9.24,41.07-16.94,52.36-13.35,7.7-15.4,15.91-35.42,25.15-62.11l3.59,3.59c-11.29,26.69-20.02,45.17-26.18,59.03,25.15,9.76,47.23,49.28,99.58,14.89l2.57,2.05c-69.81,34.4-81.11,8.22-108.83-2.57-17.45,33.88-10.78,33.37.51,95.48,15.91,87.78,100.61,71.35,154,67.76s55.44,3.08,60.06,8.22l-4.11,1.03c-8.73-6.16-31.83-11.3-71.35-3.59-39.53,7.7-141.68,22.59-158.62-46.71-9.75-40.55-13.35-58.52-10.78-71.35-34.4,37.47-33.88,50.82-40.04,66.21-4.62,13.35-3.59,15.4-2.05,30.8.51,7.7,1.54,16.94-2.57,16.94-3.59,0-2.57-9.24-1.02-17.45,2.57-14.37,2.57-21.56-5.65-11.8-29.77,39.53-49.79,39.53-93.94,41.06-13.86.51-29.26-3.08-40.55-5.65h0ZM831.5,4731.29c1.54-9.75,3.08-15.4.51-21.04-2.57-6.16-10.27-5.14-25.15-14.38,6.16.51,45.17,8.22,58.01,6.67-18.48,4.62-26.18,6.67-28.75,12.32-2.05,3.59-1.54,8.73,0,16.94.51,3.08.51,9.24-2.05,9.24-3.08,0-3.08-4.62-2.57-9.75Z"/>
  </g>
  <g>
    <path class="st26" d="M-814.1,4571.71c-18.74-59.58-51.9-110.04-85.05-110.04-41.33,0-25.47,110.04,30.27,85.05l.96.96-58.62,58.62v-213.35l1.44-.96c55.74,55.74,119.65,126.38,171.07,265.73l38.92-52.38,12.98,12.98-108.6,118.69-3.36-3.36c14.9-22.58,18.26-58.62,13.94-97.54-43.25,59.59-78.33,191.25-105.72,191.25-35.08,0-37-193.17,91.78-255.64h-.01ZM-801.13,4628.9c-2.4-16.34-5.77-32.68-10.57-48.53-56.7,26.91-94.18,94.66-94.18,148.48,0,12.49,6.73,25.47,16.82,25.47,32.68,0,52.86-79.77,87.94-125.42h-.01ZM-484.64,4654.36c-14.88,41.06-32.85,58.52-52.36,58.52-31.31,0-99.58-109.34-60.57-146.81,12.32-11.81,40.55-18.48,156.57-47.23,10.27-25.67,14.37-36.45,18.99-48.77,5.65-15.4-11.8-25.16-24.13-25.16-46.2,0-86.75,45.69-45.17,63.14l-16.94,15.91c-38.5-1.54-19.51-45.17,21.05-69.81,50.82-30.8,89.32-11.81,80.08,11.81l-39.53,103.69c-43.12,117.04-40.55,231.51,7.19,231.51,23.61,0,32.34-24.13,32.34-47.23,0-20.53-7.7-36.45-19.51-49.79l5.13-22.59c10.78,14.89,17.45,35.93,17.45,66.73,0,32.85-10.78,65.19-32.34,65.19-26.18,0-61.6-67.24-48.25-159.13v.02ZM-462.56,4573.25l20.53-51.33c-93.94,22.59-143.73,46.2-153.48,70.33-17.97,44.15,22.59,101.64,58.52,101.64,54.41,0,51.33-63.14,74.43-120.63h0Z"/>
    <path class="st26" d="M-670.66,4586.47l-15.91-15.91c-1.03-1.03-2.05-3.08-2.05-4.62v-179.66c0-4.11-3.59-7.7-7.7-7.7h-131.93c-10.78,0-15.4,11.29-7.7,18.99l80.59,80.6c7.7,7.7,18.99,3.08,18.99-7.7v-50.82c0-4.11-3.59-7.7-7.7-7.7h-10.78c-11.29,0-17.45,10.27-10.78,16.43l15.91,14.88c1.54,1.54,2.05,3.08,2.05,4.62,0,7.19-10.78,7.7-18.48.51l-37.47-35.42c-8.22-7.7-3.08-19.51,7.7-19.51h80.59c4.11,0,7.7,3.59,7.7,7.7v121.66c0,10.78-11.29,15.4-18.99,7.7l-156.57-156.57c-7.7-7.7-3.08-18.99,7.7-18.99h420.93c10.78,0,15.4,11.3,7.7,18.99l-156.56,156.57c-7.7,7.7-18.99,3.08-18.99-7.7v-121.66c0-4.11,3.59-7.7,7.7-7.7h80.6c10.78,0,15.91,11.81,7.7,19.51l-37.47,35.42c-7.7,7.18-18.48,6.67-18.48-.51,0-1.54.51-3.08,2.05-4.62l15.91-14.88c6.67-6.16.51-16.43-10.78-16.43h-10.78c-4.11,0-7.7,3.59-7.7,7.7v50.82c0,10.78,11.29,15.4,18.99,7.7l80.59-80.6c7.7-7.7,3.08-18.99-7.7-18.99h-131.93c-4.11,0-7.7,3.59-7.7,7.7v179.66c0,1.54-1.03,3.59-2.05,4.62l-15.91,15.91c-1.54,1.54-3.59,2.57-5.65,2.57s-4.11-1.03-5.65-2.57h.01ZM-897.22,4857.57l2.57-2.57c8.21,2.57,15.91,4.62,22.59,4.62,52.87,0,65.19-27.2,103.69-65.71,21.05-21.04,44.66-42.61,61.09-69.3,4.62-9.24,12.83-18.99,23.1-39.01-11.29-3.59-25.67-4.62-47.23,1.54l2.05-2.05c37.47-9.24,41.07-16.94,52.36-13.35,7.7-15.4,15.91-35.42,25.15-62.11l3.59,3.59c-11.29,26.69-20.02,45.17-26.18,59.03,25.15,9.76,47.23,49.28,99.58,14.89l2.57,2.05c-69.81,34.4-81.11,8.22-108.83-2.57-17.45,33.88-10.78,33.37.51,95.48,15.91,87.78,100.61,71.35,154,67.76s55.44,3.08,60.06,8.22l-4.11,1.03c-8.73-6.16-31.83-11.3-71.35-3.59-39.53,7.7-141.68,22.59-158.62-46.71-9.75-40.55-13.35-58.52-10.78-71.35-34.4,37.47-33.88,50.82-40.04,66.21-4.62,13.35-3.59,15.4-2.05,30.8.51,7.7,1.54,16.94-2.57,16.94-3.59,0-2.57-9.24-1.02-17.45,2.57-14.37,2.57-21.56-5.65-11.8-29.77,39.53-49.79,39.53-93.94,41.06-13.86.51-29.26-3.08-40.55-5.65h0ZM-638.5,4731.29c1.54-9.75,3.08-15.4.51-21.04-2.57-6.16-10.27-5.14-25.15-14.38,6.16.51,45.17,8.22,58.01,6.67-18.48,4.62-26.18,6.67-28.75,12.32-2.05,3.59-1.54,8.73,0,16.94.51,3.08.51,9.24-2.05,9.24-3.08,0-3.08-4.62-2.57-9.75Z"/>
  </g>
  <rect class="st26" x="-2870.52" y="4153.44" width="1366" height="912"/>
  <g>
    <path class="st23" d="M-2336.1,4571.71c-18.74-59.58-51.9-110.04-85.05-110.04-41.33,0-25.47,110.04,30.27,85.05l.96.96-58.62,58.62v-213.35l1.44-.96c55.74,55.74,119.65,126.38,171.07,265.73l38.92-52.38,12.98,12.98-108.6,118.69-3.36-3.36c14.9-22.58,18.26-58.62,13.94-97.54-43.25,59.59-78.33,191.25-105.72,191.25-35.08,0-37-193.17,91.78-255.64h0ZM-2323.13,4628.9c-2.4-16.34-5.77-32.68-10.57-48.53-56.7,26.91-94.18,94.66-94.18,148.48,0,12.49,6.73,25.47,16.82,25.47,32.68,0,52.86-79.77,87.94-125.42h-.01ZM-2006.64,4654.36c-14.88,41.06-32.85,58.52-52.36,58.52-31.31,0-99.58-109.34-60.57-146.81,12.32-11.81,40.55-18.48,156.57-47.23,10.27-25.67,14.37-36.45,18.99-48.77,5.65-15.4-11.8-25.16-24.13-25.16-46.2,0-86.75,45.69-45.17,63.14l-16.94,15.91c-38.5-1.54-19.51-45.17,21.05-69.81,50.82-30.8,89.32-11.81,80.08,11.81l-39.53,103.69c-43.12,117.04-40.55,231.51,7.19,231.51,23.61,0,32.34-24.13,32.34-47.23,0-20.53-7.7-36.45-19.51-49.79l5.13-22.59c10.78,14.89,17.45,35.93,17.45,66.73,0,32.85-10.78,65.19-32.34,65.19-26.18,0-61.6-67.24-48.25-159.13v.02ZM-1984.56,4573.25l20.53-51.33c-93.94,22.59-143.73,46.2-153.48,70.33-17.97,44.15,22.59,101.64,58.52,101.64,54.41,0,51.33-63.14,74.43-120.63h0Z"/>
    <path class="st23" d="M-2192.66,4586.47l-15.91-15.91c-1.03-1.03-2.05-3.08-2.05-4.62v-179.66c0-4.11-3.59-7.7-7.7-7.7h-131.93c-10.78,0-15.4,11.29-7.7,18.99l80.59,80.6c7.7,7.7,18.99,3.08,18.99-7.7v-50.82c0-4.11-3.59-7.7-7.7-7.7h-10.78c-11.29,0-17.45,10.27-10.78,16.43l15.91,14.88c1.54,1.54,2.05,3.08,2.05,4.62,0,7.19-10.78,7.7-18.48.51l-37.47-35.42c-8.22-7.7-3.08-19.51,7.7-19.51h80.59c4.11,0,7.7,3.59,7.7,7.7v121.66c0,10.78-11.29,15.4-18.99,7.7l-156.57-156.57c-7.7-7.7-3.08-18.99,7.7-18.99h420.93c10.78,0,15.4,11.3,7.7,18.99l-156.56,156.57c-7.7,7.7-18.99,3.08-18.99-7.7v-121.66c0-4.11,3.59-7.7,7.7-7.7h80.6c10.78,0,15.91,11.81,7.7,19.51l-37.47,35.42c-7.7,7.18-18.48,6.67-18.48-.51,0-1.54.51-3.08,2.05-4.62l15.91-14.88c6.67-6.16.51-16.43-10.78-16.43h-10.78c-4.11,0-7.7,3.59-7.7,7.7v50.82c0,10.78,11.29,15.4,18.99,7.7l80.59-80.6c7.7-7.7,3.08-18.99-7.7-18.99h-131.93c-4.11,0-7.7,3.59-7.7,7.7v179.66c0,1.54-1.03,3.59-2.05,4.62l-15.91,15.91c-1.54,1.54-3.59,2.57-5.65,2.57s-4.11-1.03-5.65-2.57h0ZM-2419.22,4857.57l2.57-2.57c8.21,2.57,15.91,4.62,22.59,4.62,52.87,0,65.19-27.2,103.69-65.71,21.05-21.04,44.66-42.61,61.09-69.3,4.62-9.24,12.83-18.99,23.1-39.01-11.29-3.59-25.67-4.62-47.23,1.54l2.05-2.05c37.47-9.24,41.07-16.94,52.36-13.35,7.7-15.4,15.91-35.42,25.15-62.11l3.59,3.59c-11.29,26.69-20.02,45.17-26.18,59.03,25.15,9.76,47.23,49.28,99.58,14.89l2.57,2.05c-69.81,34.4-81.11,8.22-108.83-2.57-17.45,33.88-10.78,33.37.51,95.48,15.91,87.78,100.61,71.35,154,67.76s55.44,3.08,60.06,8.22l-4.11,1.03c-8.73-6.16-31.83-11.3-71.35-3.59-39.53,7.7-141.68,22.59-158.62-46.71-9.75-40.55-13.35-58.52-10.78-71.35-34.4,37.47-33.88,50.82-40.04,66.21-4.62,13.35-3.59,15.4-2.05,30.8.51,7.7,1.54,16.94-2.57,16.94-3.59,0-2.57-9.24-1.02-17.45,2.57-14.37,2.57-21.56-5.65-11.8-29.77,39.53-49.79,39.53-93.94,41.06-13.86.51-29.26-3.08-40.55-5.65h0ZM-2160.5,4731.29c1.54-9.75,3.08-15.4.51-21.04-2.57-6.16-10.27-5.14-25.15-14.38,6.16.51,45.17,8.22,58.01,6.67-18.48,4.62-26.18,6.67-28.75,12.32-2.05,3.59-1.54,8.73,0,16.94.51,3.08.51,9.24-2.05,9.24-3.08,0-3.08-4.62-2.57-9.75Z"/>
  </g>
  <rect class="st23" x="-2870.52" y="3053.44" width="1366" height="912"/>
  <g>
    <path class="st26" d="M-2336.1,3471.71c-18.74-59.58-51.9-110.04-85.05-110.04-41.33,0-25.47,110.04,30.27,85.05l.96.96-58.62,58.62v-213.35l1.44-.96c55.74,55.74,119.65,126.38,171.07,265.73l38.92-52.38,12.98,12.98-108.6,118.69-3.36-3.36c14.9-22.58,18.26-58.62,13.94-97.54-43.25,59.59-78.33,191.25-105.72,191.25-35.08,0-37-193.17,91.78-255.64h0ZM-2323.13,3528.9c-2.4-16.34-5.77-32.68-10.57-48.53-56.7,26.91-94.18,94.66-94.18,148.48,0,12.49,6.73,25.47,16.82,25.47,32.68,0,52.86-79.77,87.94-125.42h-.01ZM-2006.64,3554.36c-14.88,41.06-32.85,58.52-52.36,58.52-31.31,0-99.58-109.34-60.57-146.81,12.32-11.81,40.55-18.48,156.57-47.23,10.27-25.67,14.37-36.45,18.99-48.77,5.65-15.4-11.8-25.16-24.13-25.16-46.2,0-86.75,45.69-45.17,63.14l-16.94,15.91c-38.5-1.54-19.51-45.17,21.05-69.81,50.82-30.8,89.32-11.81,80.08,11.81l-39.53,103.69c-43.12,117.04-40.55,231.51,7.19,231.51,23.61,0,32.34-24.13,32.34-47.23,0-20.53-7.7-36.45-19.51-49.79l5.13-22.59c10.78,14.89,17.45,35.93,17.45,66.73,0,32.85-10.78,65.19-32.34,65.19-26.18,0-61.6-67.24-48.25-159.13v.02ZM-1984.56,3473.25l20.53-51.33c-93.94,22.59-143.73,46.2-153.48,70.33-17.97,44.15,22.59,101.64,58.52,101.64,54.41,0,51.33-63.14,74.43-120.63h0Z"/>
    <path class="st26" d="M-2192.66,3486.47l-15.91-15.91c-1.03-1.03-2.05-3.08-2.05-4.62v-179.66c0-4.11-3.59-7.7-7.7-7.7h-131.93c-10.78,0-15.4,11.29-7.7,18.99l80.59,80.6c7.7,7.7,18.99,3.08,18.99-7.7v-50.82c0-4.11-3.59-7.7-7.7-7.7h-10.78c-11.29,0-17.45,10.27-10.78,16.43l15.91,14.88c1.54,1.54,2.05,3.08,2.05,4.62,0,7.19-10.78,7.7-18.48.51l-37.47-35.42c-8.22-7.7-3.08-19.51,7.7-19.51h80.59c4.11,0,7.7,3.59,7.7,7.7v121.66c0,10.78-11.29,15.4-18.99,7.7l-156.57-156.57c-7.7-7.7-3.08-18.99,7.7-18.99h420.93c10.78,0,15.4,11.3,7.7,18.99l-156.56,156.57c-7.7,7.7-18.99,3.08-18.99-7.7v-121.66c0-4.11,3.59-7.7,7.7-7.7h80.6c10.78,0,15.91,11.81,7.7,19.51l-37.47,35.42c-7.7,7.18-18.48,6.67-18.48-.51,0-1.54.51-3.08,2.05-4.62l15.91-14.88c6.67-6.16.51-16.43-10.78-16.43h-10.78c-4.11,0-7.7,3.59-7.7,7.7v50.82c0,10.78,11.29,15.4,18.99,7.7l80.59-80.6c7.7-7.7,3.08-18.99-7.7-18.99h-131.93c-4.11,0-7.7,3.59-7.7,7.7v179.66c0,1.54-1.03,3.59-2.05,4.62l-15.91,15.91c-1.54,1.54-3.59,2.57-5.65,2.57s-4.11-1.03-5.65-2.57h0ZM-2419.22,3757.57l2.57-2.57c8.21,2.57,15.91,4.62,22.59,4.62,52.87,0,65.19-27.2,103.69-65.71,21.05-21.04,44.66-42.61,61.09-69.3,4.62-9.24,12.83-18.99,23.1-39.01-11.29-3.59-25.67-4.62-47.23,1.54l2.05-2.05c37.47-9.24,41.07-16.94,52.36-13.35,7.7-15.4,15.91-35.42,25.15-62.11l3.59,3.59c-11.29,26.69-20.02,45.17-26.18,59.03,25.15,9.76,47.23,49.28,99.58,14.89l2.57,2.05c-69.81,34.4-81.11,8.22-108.83-2.57-17.45,33.88-10.78,33.37.51,95.48,15.91,87.78,100.61,71.35,154,67.76,53.38-3.59,55.44,3.08,60.06,8.22l-4.11,1.03c-8.73-6.16-31.83-11.3-71.35-3.59-39.53,7.7-141.68,22.59-158.62-46.71-9.75-40.55-13.35-58.52-10.78-71.35-34.4,37.47-33.88,50.82-40.04,66.21-4.62,13.35-3.59,15.4-2.05,30.8.51,7.7,1.54,16.94-2.57,16.94-3.59,0-2.57-9.24-1.02-17.45,2.57-14.37,2.57-21.56-5.65-11.8-29.77,39.53-49.79,39.53-93.94,41.06-13.86.51-29.26-3.08-40.55-5.65h0ZM-2160.5,3631.29c1.54-9.75,3.08-15.4.51-21.04-2.57-6.16-10.27-5.14-25.15-14.38,6.16.51,45.17,8.22,58.01,6.67-18.48,4.62-26.18,6.67-28.75,12.32-2.05,3.59-1.54,8.73,0,16.94.51,3.08.51,9.24-2.05,9.24-3.08,0-3.08-4.62-2.57-9.75Z"/>
  </g>
  <g>
    <path class="st19" d="M-814.81,3471.77c-18.74-59.58-51.9-110.04-85.05-110.04-41.33,0-25.47,110.04,30.27,85.05l.96.96-58.62,58.62v-213.35l1.44-.96c55.74,55.74,119.65,126.38,171.07,265.73l38.92-52.38,12.98,12.98-108.6,118.69-3.36-3.36c14.9-22.58,18.26-58.62,13.94-97.54-43.25,59.59-78.33,191.25-105.72,191.25-35.08,0-37-193.17,91.78-255.64h-.01ZM-801.84,3528.96c-2.4-16.34-5.77-32.68-10.57-48.53-56.7,26.91-94.18,94.66-94.18,148.48,0,12.49,6.73,25.47,16.82,25.47,32.68,0,52.86-79.77,87.94-125.42h-.01ZM-485.35,3554.42c-14.88,41.06-32.85,58.52-52.36,58.52-31.31,0-99.58-109.34-60.57-146.81,12.32-11.81,40.55-18.48,156.57-47.23,10.27-25.67,14.37-36.45,18.99-48.77,5.65-15.4-11.8-25.16-24.13-25.16-46.2,0-86.75,45.69-45.17,63.14l-16.94,15.91c-38.5-1.54-19.51-45.17,21.05-69.81,50.82-30.8,89.32-11.81,80.08,11.81l-39.53,103.69c-43.12,117.04-40.55,231.51,7.19,231.51,23.61,0,32.34-24.13,32.34-47.23,0-20.53-7.7-36.45-19.51-49.79l5.13-22.59c10.78,14.89,17.45,35.93,17.45,66.73,0,32.85-10.78,65.19-32.34,65.19-26.18,0-61.6-67.24-48.25-159.13v.02ZM-463.27,3473.31l20.53-51.33c-93.94,22.59-143.73,46.2-153.48,70.33-17.97,44.15,22.59,101.64,58.52,101.64,54.41,0,51.33-63.14,74.43-120.63h0Z"/>
    <path class="st19" d="M-671.37,3486.53l-15.91-15.91c-1.03-1.03-2.05-3.08-2.05-4.62v-179.66c0-4.11-3.59-7.7-7.7-7.7h-131.93c-10.78,0-15.4,11.29-7.7,18.99l80.59,80.6c7.7,7.7,18.99,3.08,18.99-7.7v-50.82c0-4.11-3.59-7.7-7.7-7.7h-10.78c-11.29,0-17.45,10.27-10.78,16.43l15.91,14.88c1.54,1.54,2.05,3.08,2.05,4.62,0,7.19-10.78,7.7-18.48.51l-37.47-35.42c-8.22-7.7-3.08-19.51,7.7-19.51h80.59c4.11,0,7.7,3.59,7.7,7.7v121.66c0,10.78-11.29,15.4-18.99,7.7l-156.57-156.57c-7.7-7.7-3.08-18.99,7.7-18.99h420.93c10.78,0,15.4,11.3,7.7,18.99l-156.56,156.57c-7.7,7.7-18.99,3.08-18.99-7.7v-121.66c0-4.11,3.59-7.7,7.7-7.7h80.6c10.78,0,15.91,11.81,7.7,19.51l-37.47,35.42c-7.7,7.18-18.48,6.67-18.48-.51,0-1.54.51-3.08,2.05-4.62l15.91-14.88c6.67-6.16.51-16.43-10.78-16.43h-10.78c-4.11,0-7.7,3.59-7.7,7.7v50.82c0,10.78,11.29,15.4,18.99,7.7l80.59-80.6c7.7-7.7,3.08-18.99-7.7-18.99h-131.93c-4.11,0-7.7,3.59-7.7,7.7v179.66c0,1.54-1.03,3.59-2.05,4.62l-15.91,15.91c-1.54,1.54-3.59,2.57-5.65,2.57s-4.11-1.03-5.65-2.57h.01ZM-897.93,3757.63l2.57-2.57c8.21,2.57,15.91,4.62,22.59,4.62,52.87,0,65.19-27.2,103.69-65.71,21.05-21.04,44.66-42.61,61.09-69.3,4.62-9.24,12.83-18.99,23.1-39.01-11.29-3.59-25.67-4.62-47.23,1.54l2.05-2.05c37.47-9.24,41.07-16.94,52.36-13.35,7.7-15.4,15.91-35.42,25.15-62.11l3.59,3.59c-11.29,26.69-20.02,45.17-26.18,59.03,25.15,9.76,47.23,49.28,99.58,14.89l2.57,2.05c-69.81,34.4-81.11,8.22-108.83-2.57-17.45,33.88-10.78,33.37.51,95.48,15.91,87.78,100.61,71.35,154,67.76,53.38-3.59,55.44,3.08,60.06,8.22l-4.11,1.03c-8.73-6.16-31.83-11.3-71.35-3.59-39.53,7.7-141.68,22.59-158.62-46.71-9.75-40.55-13.35-58.52-10.78-71.35-34.4,37.47-33.88,50.82-40.04,66.21-4.62,13.35-3.59,15.4-2.05,30.8.51,7.7,1.54,16.94-2.57,16.94-3.59,0-2.57-9.24-1.02-17.45,2.57-14.37,2.57-21.56-5.65-11.8-29.77,39.53-49.79,39.53-93.94,41.06-13.86.51-29.26-3.08-40.55-5.65h0ZM-639.21,3631.35c1.54-9.75,3.08-15.4.51-21.04-2.57-6.16-10.27-5.14-25.15-14.38,6.16.51,45.17,8.22,58.01,6.67-18.48,4.62-26.18,6.67-28.75,12.32-2.05,3.59-1.54,8.73,0,16.94.51,3.08.51,9.24-2.05,9.24-3.08,0-3.08-4.62-2.57-9.75Z"/>
  </g>
  <g class="st29">
    <g>
      <rect class="st27" x="8.48" y="1979.44" width="1366" height="912"/>
      <g>
        <path class="st24" d="M540.9,2398.71c-18.74-59.58-51.9-110.04-85.05-110.04-41.33,0-25.47,110.04,30.27,85.05l.96.96-58.62,58.62v-213.35l1.44-.96c55.74,55.74,119.65,126.38,171.07,265.73l38.92-52.38,12.98,12.98-108.6,118.69-3.36-3.36c14.9-22.58,18.26-58.62,13.94-97.54-43.25,59.59-78.33,191.25-105.72,191.25-35.08,0-37-193.17,91.78-255.64h-.01ZM553.87,2455.9c-2.4-16.34-5.77-32.68-10.57-48.53-56.7,26.91-94.18,94.66-94.18,148.48,0,12.49,6.73,25.47,16.82,25.47,32.68,0,52.86-79.77,87.94-125.42h-.01ZM870.36,2481.36c-14.88,41.06-32.85,58.52-52.36,58.52-31.31,0-99.58-109.34-60.57-146.81,12.32-11.81,40.55-18.48,156.57-47.23,10.27-25.67,14.37-36.45,18.99-48.77,5.65-15.4-11.8-25.16-24.13-25.16-46.2,0-86.75,45.69-45.17,63.14l-16.94,15.91c-38.5-1.54-19.51-45.17,21.05-69.81,50.82-30.8,89.32-11.81,80.08,11.81l-39.53,103.69c-43.12,117.04-40.55,231.51,7.19,231.51,23.61,0,32.34-24.13,32.34-47.23,0-20.53-7.7-36.45-19.51-49.79l5.13-22.59c10.78,14.89,17.45,35.93,17.45,66.73,0,32.85-10.78,65.19-32.34,65.19-26.18,0-61.6-67.24-48.25-159.13v.02ZM892.44,2400.25l20.53-51.33c-93.94,22.59-143.73,46.2-153.48,70.33-17.97,44.15,22.59,101.64,58.52,101.64,54.41,0,51.33-63.14,74.43-120.63h0Z"/>
        <path class="st24" d="M684.34,2413.47l-15.91-15.91c-1.03-1.03-2.05-3.08-2.05-4.62v-179.66c0-4.11-3.59-7.7-7.7-7.7h-131.93c-10.78,0-15.4,11.29-7.7,18.99l80.59,80.6c7.7,7.7,18.99,3.08,18.99-7.7v-50.82c0-4.11-3.59-7.7-7.7-7.7h-10.78c-11.29,0-17.45,10.27-10.78,16.43l15.91,14.88c1.54,1.54,2.05,3.08,2.05,4.62,0,7.19-10.78,7.7-18.48.51l-37.47-35.42c-8.22-7.7-3.08-19.51,7.7-19.51h80.59c4.11,0,7.7,3.59,7.7,7.7v121.66c0,10.78-11.29,15.4-18.99,7.7l-156.57-156.57c-7.7-7.7-3.08-18.99,7.7-18.99h420.93c10.78,0,15.4,11.3,7.7,18.99l-156.56,156.57c-7.7,7.7-18.99,3.08-18.99-7.7v-121.66c0-4.11,3.59-7.7,7.7-7.7h80.6c10.78,0,15.91,11.81,7.7,19.51l-37.47,35.42c-7.7,7.18-18.48,6.67-18.48-.51,0-1.54.51-3.08,2.05-4.62l15.91-14.88c6.67-6.16.51-16.43-10.78-16.43h-10.78c-4.11,0-7.7,3.59-7.7,7.7v50.82c0,10.78,11.29,15.4,18.99,7.7l80.59-80.6c7.7-7.7,3.08-18.99-7.7-18.99h-131.93c-4.11,0-7.7,3.59-7.7,7.7v179.66c0,1.54-1.03,3.59-2.05,4.62l-15.91,15.91c-1.54,1.54-3.59,2.57-5.65,2.57s-4.11-1.03-5.65-2.57h.01ZM457.78,2684.57l2.57-2.57c8.21,2.57,15.91,4.62,22.59,4.62,52.87,0,65.19-27.2,103.69-65.71,21.05-21.04,44.66-42.61,61.09-69.3,4.62-9.24,12.83-18.99,23.1-39.01-11.29-3.59-25.67-4.62-47.23,1.54l2.05-2.05c37.47-9.24,41.07-16.94,52.36-13.35,7.7-15.4,15.91-35.42,25.15-62.11l3.59,3.59c-11.29,26.69-20.02,45.17-26.18,59.03,25.15,9.76,47.23,49.28,99.58,14.89l2.57,2.05c-69.81,34.4-81.11,8.22-108.83-2.57-17.45,33.88-10.78,33.37.51,95.48,15.91,87.78,100.61,71.35,154,67.76,53.38-3.59,55.44,3.08,60.06,8.22l-4.11,1.03c-8.73-6.16-31.83-11.3-71.35-3.59-39.53,7.7-141.68,22.59-158.62-46.71-9.75-40.55-13.35-58.52-10.78-71.35-34.4,37.47-33.88,50.82-40.04,66.21-4.62,13.35-3.59,15.4-2.05,30.8.51,7.7,1.54,16.94-2.57,16.94-3.59,0-2.57-9.24-1.02-17.45,2.57-14.37,2.57-21.56-5.65-11.8-29.77,39.53-49.79,39.53-93.94,41.06-13.86.51-29.26-3.08-40.55-5.65h0ZM716.5,2558.29c1.54-9.75,3.08-15.4.51-21.04-2.57-6.16-10.27-5.14-25.15-14.38,6.16.51,45.17,8.22,58.01,6.67-18.48,4.62-26.18,6.67-28.75,12.32-2.05,3.59-1.54,8.73,0,16.94.51,3.08.51,9.24-2.05,9.24-3.08,0-3.08-4.62-2.57-9.75h0Z"/>
      </g>
    </g>
  </g>
  <g>
    <circle class="st27" cx="-748.02" cy="1428.94" r="431.5"/>
    <g class="st14">
      <g>
        <rect class="st27" x="-1417.52" y="971.44" width="1366" height="912"/>
        <g>
          <path class="st21" d="M-885.1,1390.71c-18.74-59.58-51.9-110.04-85.05-110.04-41.33,0-25.47,110.04,30.27,85.05l.96.96-58.62,58.62v-213.35l1.44-.96c55.74,55.74,119.65,126.38,171.07,265.73l38.92-52.38,12.98,12.98-108.6,118.69-3.36-3.36c14.9-22.58,18.26-58.62,13.94-97.54-43.25,59.59-78.33,191.25-105.72,191.25-35.08,0-37-193.17,91.78-255.64h-.01ZM-872.13,1447.9c-2.4-16.34-5.77-32.68-10.57-48.53-56.7,26.91-94.18,94.66-94.18,148.48,0,12.49,6.73,25.47,16.82,25.47,32.68,0,52.86-79.77,87.94-125.42h-.01ZM-555.64,1473.36c-14.88,41.06-32.85,58.52-52.36,58.52-31.31,0-99.58-109.34-60.57-146.81,12.32-11.81,40.55-18.48,156.57-47.23,10.27-25.67,14.37-36.45,18.99-48.77,5.65-15.4-11.8-25.16-24.13-25.16-46.2,0-86.75,45.69-45.17,63.14l-16.94,15.91c-38.5-1.54-19.51-45.17,21.05-69.81,50.82-30.8,89.32-11.81,80.08,11.81l-39.53,103.69c-43.12,117.04-40.55,231.51,7.19,231.51,23.61,0,32.34-24.13,32.34-47.23,0-20.53-7.7-36.45-19.51-49.79l5.13-22.59c10.78,14.89,17.45,35.93,17.45,66.73,0,32.85-10.78,65.19-32.34,65.19-26.18,0-61.6-67.24-48.25-159.13v.02ZM-533.56,1392.25l20.53-51.33c-93.94,22.59-143.73,46.2-153.48,70.33-17.97,44.15,22.59,101.64,58.52,101.64,54.41,0,51.33-63.14,74.43-120.63h0Z"/>
          <path class="st21" d="M-741.66,1405.47l-15.91-15.91c-1.03-1.03-2.05-3.08-2.05-4.62v-179.66c0-4.11-3.59-7.7-7.7-7.7h-131.93c-10.78,0-15.4,11.29-7.7,18.99l80.59,80.6c7.7,7.7,18.99,3.08,18.99-7.7v-50.82c0-4.11-3.59-7.7-7.7-7.7h-10.78c-11.29,0-17.45,10.27-10.78,16.43l15.91,14.88c1.54,1.54,2.05,3.08,2.05,4.62,0,7.19-10.78,7.7-18.48.51l-37.47-35.42c-8.22-7.7-3.08-19.51,7.7-19.51h80.59c4.11,0,7.7,3.59,7.7,7.7v121.66c0,10.78-11.29,15.4-18.99,7.7l-156.57-156.57c-7.7-7.7-3.08-18.99,7.7-18.99h420.93c10.78,0,15.4,11.3,7.7,18.99l-156.56,156.57c-7.7,7.7-18.99,3.08-18.99-7.7v-121.66c0-4.11,3.59-7.7,7.7-7.7h80.6c10.78,0,15.91,11.81,7.7,19.51l-37.47,35.42c-7.7,7.18-18.48,6.67-18.48-.51,0-1.54.51-3.08,2.05-4.62l15.91-14.88c6.67-6.16.51-16.43-10.78-16.43h-10.78c-4.11,0-7.7,3.59-7.7,7.7v50.82c0,10.78,11.29,15.4,18.99,7.7l80.59-80.6c7.7-7.7,3.08-18.99-7.7-18.99h-131.93c-4.11,0-7.7,3.59-7.7,7.7v179.66c0,1.54-1.03,3.59-2.05,4.62l-15.91,15.91c-1.54,1.54-3.59,2.57-5.65,2.57s-4.11-1.03-5.65-2.57h.01ZM-968.22,1676.57l2.57-2.57c8.21,2.57,15.91,4.62,22.59,4.62,52.87,0,65.19-27.2,103.69-65.71,21.05-21.04,44.66-42.61,61.09-69.3,4.62-9.24,12.83-18.99,23.1-39.01-11.29-3.59-25.67-4.62-47.23,1.54l2.05-2.05c37.47-9.24,41.07-16.94,52.36-13.35,7.7-15.4,15.91-35.42,25.15-62.11l3.59,3.59c-11.29,26.69-20.02,45.17-26.18,59.03,25.15,9.76,47.23,49.28,99.58,14.89l2.57,2.05c-69.81,34.4-81.11,8.22-108.83-2.57-17.45,33.88-10.78,33.37.51,95.48,15.91,87.78,100.61,71.35,154,67.76,53.38-3.59,55.44,3.08,60.06,8.22l-4.11,1.03c-8.73-6.16-31.83-11.3-71.35-3.59-39.53,7.7-141.68,22.59-158.62-46.71-9.75-40.55-13.35-58.52-10.78-71.35-34.4,37.47-33.88,50.82-40.04,66.21-4.62,13.35-3.59,15.4-2.05,30.8.51,7.7,1.54,16.94-2.57,16.94-3.59,0-2.57-9.24-1.02-17.45,2.57-14.37,2.57-21.56-5.65-11.8-29.77,39.53-49.79,39.53-93.94,41.06-13.86.51-29.26-3.08-40.55-5.65h0ZM-709.5,1550.29c1.54-9.75,3.08-15.4.51-21.04-2.57-6.16-10.27-5.14-25.15-14.38,6.16.51,45.17,8.22,58.01,6.67-18.48,4.62-26.18,6.67-28.75,12.32-2.05,3.59-1.54,8.73,0,16.94.51,3.08.51,9.24-2.05,9.24-3.08,0-3.08-4.62-2.57-9.75Z"/>
        </g>
      </g>
    </g>
  </g>
  <g>
    <circle class="st26" cx="671.98" cy="454.94" r="431.5"/>
    <g class="st17">
      <g>
        <rect class="st23" x="2.48" y="-2.56" width="1366" height="912"/>
        <g>
          <path class="st12" d="M534.9,416.71c-18.74-59.58-51.9-110.04-85.05-110.04-41.33,0-25.47,110.04,30.27,85.05l.96.96-58.62,58.62v-213.35l1.44-.96c55.74,55.74,119.65,126.38,171.07,265.73l38.92-52.38,12.98,12.98-108.6,118.69-3.36-3.36c14.9-22.58,18.26-58.62,13.94-97.54-43.25,59.59-78.33,191.25-105.72,191.25-35.08,0-37-193.17,91.78-255.64h-.01ZM547.87,473.9c-2.4-16.34-5.77-32.68-10.57-48.53-56.7,26.91-94.18,94.66-94.18,148.48,0,12.49,6.73,25.47,16.82,25.47,32.68,0,52.86-79.77,87.94-125.42h-.01ZM864.36,499.36c-14.88,41.06-32.85,58.52-52.36,58.52-31.31,0-99.58-109.34-60.57-146.81,12.32-11.81,40.55-18.48,156.57-47.23,10.27-25.67,14.37-36.45,18.99-48.77,5.65-15.4-11.8-25.16-24.13-25.16-46.2,0-86.75,45.69-45.17,63.14l-16.94,15.91c-38.5-1.54-19.51-45.17,21.05-69.81,50.82-30.8,89.32-11.81,80.08,11.81l-39.53,103.69c-43.12,117.04-40.55,231.51,7.19,231.51,23.61,0,32.34-24.13,32.34-47.23,0-20.53-7.7-36.45-19.51-49.79l5.13-22.59c10.78,14.89,17.45,35.93,17.45,66.73,0,32.85-10.78,65.19-32.34,65.19-26.18,0-61.6-67.24-48.25-159.13v.02ZM886.44,418.25l20.53-51.33c-93.94,22.59-143.73,46.2-153.48,70.33-17.97,44.15,22.59,101.64,58.52,101.64,54.41,0,51.33-63.14,74.43-120.63h0Z"/>
          <path class="st12" d="M678.34,431.47l-15.91-15.91c-1.03-1.03-2.05-3.08-2.05-4.62v-179.66c0-4.11-3.59-7.7-7.7-7.7h-131.93c-10.78,0-15.4,11.29-7.7,18.99l80.59,80.6c7.7,7.7,18.99,3.08,18.99-7.7v-50.82c0-4.11-3.59-7.7-7.7-7.7h-10.78c-11.29,0-17.45,10.27-10.78,16.43l15.91,14.88c1.54,1.54,2.05,3.08,2.05,4.62,0,7.19-10.78,7.7-18.48.51l-37.47-35.42c-8.22-7.7-3.08-19.51,7.7-19.51h80.59c4.11,0,7.7,3.59,7.7,7.7v121.66c0,10.78-11.29,15.4-18.99,7.7l-156.57-156.57c-7.7-7.7-3.08-18.99,7.7-18.99h420.93c10.78,0,15.4,11.3,7.7,18.99l-156.56,156.57c-7.7,7.7-18.99,3.08-18.99-7.7v-121.66c0-4.11,3.59-7.7,7.7-7.7h80.6c10.78,0,15.91,11.81,7.7,19.51l-37.47,35.42c-7.7,7.18-18.48,6.67-18.48-.51,0-1.54.51-3.08,2.05-4.62l15.91-14.88c6.67-6.16.51-16.43-10.78-16.43h-10.78c-4.11,0-7.7,3.59-7.7,7.7v50.82c0,10.78,11.29,15.4,18.99,7.7l80.59-80.6c7.7-7.7,3.08-18.99-7.7-18.99h-131.93c-4.11,0-7.7,3.59-7.7,7.7v179.66c0,1.54-1.03,3.59-2.05,4.62l-15.91,15.91c-1.54,1.54-3.59,2.57-5.65,2.57s-4.11-1.03-5.65-2.57h.01ZM451.78,702.57l2.57-2.57c8.21,2.57,15.91,4.62,22.59,4.62,52.87,0,65.19-27.2,103.69-65.71,21.05-21.04,44.66-42.61,61.09-69.3,4.62-9.24,12.83-18.99,23.1-39.01-11.29-3.59-25.67-4.62-47.23,1.54l2.05-2.05c37.47-9.24,41.07-16.94,52.36-13.35,7.7-15.4,15.91-35.42,25.15-62.11l3.59,3.59c-11.29,26.69-20.02,45.17-26.18,59.03,25.15,9.76,47.23,49.28,99.58,14.89l2.57,2.05c-69.81,34.4-81.11,8.22-108.83-2.57-17.45,33.88-10.78,33.37.51,95.48,15.91,87.78,100.61,71.35,154,67.76,53.38-3.59,55.44,3.08,60.06,8.22l-4.11,1.03c-8.73-6.16-31.83-11.3-71.35-3.59-39.53,7.7-141.68,22.59-158.62-46.71-9.75-40.55-13.35-58.52-10.78-71.35-34.4,37.47-33.88,50.82-40.04,66.21-4.62,13.35-3.59,15.4-2.05,30.8.51,7.7,1.54,16.94-2.57,16.94-3.59,0-2.57-9.24-1.02-17.45,2.57-14.37,2.57-21.56-5.65-11.8-29.77,39.53-49.79,39.53-93.94,41.06-13.86.51-29.26-3.08-40.55-5.65h0ZM710.5,576.29c1.54-9.75,3.08-15.4.51-21.04-2.57-6.16-10.27-5.14-25.15-14.38,6.16.51,45.17,8.22,58.01,6.67-18.48,4.62-26.18,6.67-28.75,12.32-2.05,3.59-1.54,8.73,0,16.94.51,3.08.51,9.24-2.05,9.24-3.08,0-3.08-4.62-2.57-9.75Z"/>
        </g>
      </g>
    </g>
  </g>
  <g>
    <circle class="st26" cx="-882.63" cy="414.3" r="431.5"/>
    <g class="st15">
      <g>
        <rect class="st12" x="-1552.13" y="-43.2" width="1366" height="912"/>
        <g>
          <path class="st23" d="M-1019.71,376.07c-18.74-59.58-51.9-110.04-85.05-110.04-41.33,0-25.47,110.04,30.27,85.05l.96.96-58.62,58.62v-213.35l1.44-.96c55.74,55.74,119.65,126.38,171.07,265.73l38.92-52.38,12.98,12.98-108.6,118.69-3.36-3.36c14.9-22.58,18.26-58.62,13.94-97.54-43.25,59.59-78.33,191.25-105.72,191.25-35.08,0-37-193.17,91.78-255.64h-.01ZM-1006.74,433.26c-2.4-16.34-5.77-32.68-10.57-48.53-56.7,26.91-94.18,94.66-94.18,148.48,0,12.49,6.73,25.47,16.82,25.47,32.68,0,52.86-79.77,87.94-125.42h-.01ZM-690.25,458.72c-14.88,41.06-32.85,58.52-52.36,58.52-31.31,0-99.58-109.34-60.57-146.81,12.32-11.81,40.55-18.48,156.57-47.23,10.27-25.67,14.37-36.45,18.99-48.77,5.65-15.4-11.8-25.16-24.13-25.16-46.2,0-86.75,45.69-45.17,63.14l-16.94,15.91c-38.5-1.54-19.51-45.17,21.05-69.81,50.82-30.8,89.32-11.81,80.08,11.81l-39.53,103.69c-43.12,117.04-40.55,231.51,7.19,231.51,23.61,0,32.34-24.13,32.34-47.23,0-20.53-7.7-36.45-19.51-49.79l5.13-22.59c10.78,14.89,17.45,35.93,17.45,66.73,0,32.85-10.78,65.19-32.34,65.19-26.18,0-61.6-67.24-48.25-159.13v.02ZM-668.17,377.61l20.53-51.33c-93.94,22.59-143.73,46.2-153.48,70.33-17.97,44.15,22.59,101.64,58.52,101.64,54.41,0,51.33-63.14,74.43-120.63h0Z"/>
          <path class="st23" d="M-876.27,390.83l-15.91-15.91c-1.03-1.03-2.05-3.08-2.05-4.62v-179.66c0-4.11-3.59-7.7-7.7-7.7h-131.93c-10.78,0-15.4,11.29-7.7,18.99l80.59,80.6c7.7,7.7,18.99,3.08,18.99-7.7v-50.82c0-4.11-3.59-7.7-7.7-7.7h-10.78c-11.29,0-17.45,10.27-10.78,16.43l15.91,14.88c1.54,1.54,2.05,3.08,2.05,4.62,0,7.19-10.78,7.7-18.48.51l-37.47-35.42c-8.22-7.7-3.08-19.51,7.7-19.51h80.59c4.11,0,7.7,3.59,7.7,7.7v121.66c0,10.78-11.29,15.4-18.99,7.7l-156.57-156.57c-7.7-7.7-3.08-18.99,7.7-18.99h420.93c10.78,0,15.4,11.3,7.7,18.99l-156.56,156.57c-7.7,7.7-18.99,3.08-18.99-7.7v-121.66c0-4.11,3.59-7.7,7.7-7.7h80.6c10.78,0,15.91,11.81,7.7,19.51l-37.47,35.42c-7.7,7.18-18.48,6.67-18.48-.51,0-1.54.51-3.08,2.05-4.62l15.91-14.88c6.67-6.16.51-16.43-10.78-16.43h-10.78c-4.11,0-7.7,3.59-7.7,7.7v50.82c0,10.78,11.29,15.4,18.99,7.7l80.59-80.6c7.7-7.7,3.08-18.99-7.7-18.99h-131.93c-4.11,0-7.7,3.59-7.7,7.7v179.66c0,1.54-1.03,3.59-2.05,4.62l-15.91,15.91c-1.54,1.54-3.59,2.57-5.65,2.57s-4.11-1.03-5.65-2.57h.01ZM-1102.83,661.93l2.57-2.57c8.21,2.57,15.91,4.62,22.59,4.62,52.87,0,65.19-27.2,103.69-65.71,21.05-21.04,44.66-42.61,61.09-69.3,4.62-9.24,12.83-18.99,23.1-39.01-11.29-3.59-25.67-4.62-47.23,1.54l2.05-2.05c37.47-9.24,41.07-16.94,52.36-13.35,7.7-15.4,15.91-35.42,25.15-62.11l3.59,3.59c-11.29,26.69-20.02,45.17-26.18,59.03,25.15,9.76,47.23,49.28,99.58,14.89l2.57,2.05c-69.81,34.4-81.11,8.22-108.83-2.57-17.45,33.88-10.78,33.37.51,95.48,15.91,87.78,100.61,71.35,154,67.76,53.38-3.59,55.44,3.08,60.06,8.22l-4.11,1.03c-8.73-6.16-31.83-11.3-71.35-3.59-39.53,7.7-141.68,22.59-158.62-46.71-9.75-40.55-13.35-58.52-10.78-71.35-34.4,37.47-33.88,50.82-40.04,66.21-4.62,13.35-3.59,15.4-2.05,30.8.51,7.7,1.54,16.94-2.57,16.94-3.59,0-2.57-9.24-1.02-17.45,2.57-14.37,2.57-21.56-5.65-11.8-29.77,39.53-49.79,39.53-93.94,41.06-13.86.51-29.26-3.08-40.55-5.65h0ZM-844.11,535.65c1.54-9.75,3.08-15.4.51-21.04-2.57-6.16-10.27-5.14-25.15-14.38,6.16.51,45.17,8.22,58.01,6.67-18.48,4.62-26.18,6.67-28.75,12.32-2.05,3.59-1.54,8.73,0,16.94.51,3.08.51,9.24-2.05,9.24-3.08,0-3.08-4.62-2.57-9.75Z"/>
        </g>
      </g>
    </g>
  </g>
  <g class="st16">
    <g>
      <rect class="st20" x="-1422.52" y="1975.44" width="1366" height="912"/>
      <g>
        <path class="st25" d="M-890.1,2394.71c-18.74-59.58-51.9-110.04-85.05-110.04-41.33,0-25.47,110.04,30.27,85.05l.96.96-58.62,58.62v-213.35l1.44-.96c55.74,55.74,119.65,126.38,171.07,265.73l38.92-52.38,12.98,12.98-108.6,118.69-3.36-3.36c14.9-22.58,18.26-58.62,13.94-97.54-43.25,59.59-78.33,191.25-105.72,191.25-35.08,0-37-193.17,91.78-255.64h-.01ZM-877.13,2451.9c-2.4-16.34-5.77-32.68-10.57-48.53-56.7,26.91-94.18,94.66-94.18,148.48,0,12.49,6.73,25.47,16.82,25.47,32.68,0,52.86-79.77,87.94-125.42h-.01ZM-560.64,2477.36c-14.88,41.06-32.85,58.52-52.36,58.52-31.31,0-99.58-109.34-60.57-146.81,12.32-11.81,40.55-18.48,156.57-47.23,10.27-25.67,14.37-36.45,18.99-48.77,5.65-15.4-11.8-25.16-24.13-25.16-46.2,0-86.75,45.69-45.17,63.14l-16.94,15.91c-38.5-1.54-19.51-45.17,21.05-69.81,50.82-30.8,89.32-11.81,80.08,11.81l-39.53,103.69c-43.12,117.04-40.55,231.51,7.19,231.51,23.61,0,32.34-24.13,32.34-47.23,0-20.53-7.7-36.45-19.51-49.79l5.13-22.59c10.78,14.89,17.45,35.93,17.45,66.73,0,32.85-10.78,65.19-32.34,65.19-26.18,0-61.6-67.24-48.25-159.13v.02ZM-538.56,2396.25l20.53-51.33c-93.94,22.59-143.73,46.2-153.48,70.33-17.97,44.15,22.59,101.64,58.52,101.64,54.41,0,51.33-63.14,74.43-120.63h0Z"/>
        <path class="st25" d="M-746.66,2409.47l-15.91-15.91c-1.03-1.03-2.05-3.08-2.05-4.62v-179.66c0-4.11-3.59-7.7-7.7-7.7h-131.93c-10.78,0-15.4,11.29-7.7,18.99l80.59,80.6c7.7,7.7,18.99,3.08,18.99-7.7v-50.82c0-4.11-3.59-7.7-7.7-7.7h-10.78c-11.29,0-17.45,10.27-10.78,16.43l15.91,14.88c1.54,1.54,2.05,3.08,2.05,4.62,0,7.19-10.78,7.7-18.48.51l-37.47-35.42c-8.22-7.7-3.08-19.51,7.7-19.51h80.59c4.11,0,7.7,3.59,7.7,7.7v121.66c0,10.78-11.29,15.4-18.99,7.7l-156.57-156.57c-7.7-7.7-3.08-18.99,7.7-18.99h420.93c10.78,0,15.4,11.3,7.7,18.99l-156.56,156.57c-7.7,7.7-18.99,3.08-18.99-7.7v-121.66c0-4.11,3.59-7.7,7.7-7.7h80.6c10.78,0,15.91,11.81,7.7,19.51l-37.47,35.42c-7.7,7.18-18.48,6.67-18.48-.51,0-1.54.51-3.08,2.05-4.62l15.91-14.88c6.67-6.16.51-16.43-10.78-16.43h-10.78c-4.11,0-7.7,3.59-7.7,7.7v50.82c0,10.78,11.29,15.4,18.99,7.7l80.59-80.6c7.7-7.7,3.08-18.99-7.7-18.99h-131.93c-4.11,0-7.7,3.59-7.7,7.7v179.66c0,1.54-1.03,3.59-2.05,4.62l-15.91,15.91c-1.54,1.54-3.59,2.57-5.65,2.57s-4.11-1.03-5.65-2.57h.01ZM-973.22,2680.57l2.57-2.57c8.21,2.57,15.91,4.62,22.59,4.62,52.87,0,65.19-27.2,103.69-65.71,21.05-21.04,44.66-42.61,61.09-69.3,4.62-9.24,12.83-18.99,23.1-39.01-11.29-3.59-25.67-4.62-47.23,1.54l2.05-2.05c37.47-9.24,41.07-16.94,52.36-13.35,7.7-15.4,15.91-35.42,25.15-62.11l3.59,3.59c-11.29,26.69-20.02,45.17-26.18,59.03,25.15,9.76,47.23,49.28,99.58,14.89l2.57,2.05c-69.81,34.4-81.11,8.22-108.83-2.57-17.45,33.88-10.78,33.37.51,95.48,15.91,87.78,100.61,71.35,154,67.76,53.38-3.59,55.44,3.08,60.06,8.22l-4.11,1.03c-8.73-6.16-31.83-11.3-71.35-3.59-39.53,7.7-141.68,22.59-158.62-46.71-9.75-40.55-13.35-58.52-10.78-71.35-34.4,37.47-33.88,50.82-40.04,66.21-4.62,13.35-3.59,15.4-2.05,30.8.51,7.7,1.54,16.94-2.57,16.94-3.59,0-2.57-9.24-1.02-17.45,2.57-14.37,2.57-21.56-5.65-11.8-29.77,39.53-49.79,39.53-93.94,41.06-13.86.51-29.26-3.08-40.55-5.65h0ZM-714.5,2554.29c1.54-9.75,3.08-15.4.51-21.04-2.57-6.16-10.27-5.14-25.15-14.38,6.16.51,45.17,8.22,58.01,6.67-18.48,4.62-26.18,6.67-28.75,12.32-2.05,3.59-1.54,8.73,0,16.94.51,3.08.51,9.24-2.05,9.24-3.08,0-3.08-4.62-2.57-9.75h0Z"/>
      </g>
    </g>
  </g>
  <g class="st18">
    <g>
      <rect class="st27" x="-2870.52" y="1975.44" width="1366" height="912"/>
      <g>
        <path class="st12" d="M-2338.1,2394.71c-18.74-59.58-51.9-110.04-85.05-110.04-41.33,0-25.47,110.04,30.27,85.05l.96.96-58.62,58.62v-213.35l1.44-.96c55.74,55.74,119.65,126.38,171.07,265.73l38.92-52.38,12.98,12.98-108.6,118.69-3.36-3.36c14.9-22.58,18.26-58.62,13.94-97.54-43.25,59.59-78.33,191.25-105.72,191.25-35.08,0-37-193.17,91.78-255.64h0ZM-2325.13,2451.9c-2.4-16.34-5.77-32.68-10.57-48.53-56.7,26.91-94.18,94.66-94.18,148.48,0,12.49,6.73,25.47,16.82,25.47,32.68,0,52.86-79.77,87.94-125.42h-.01ZM-2008.64,2477.36c-14.88,41.06-32.85,58.52-52.36,58.52-31.31,0-99.58-109.34-60.57-146.81,12.32-11.81,40.55-18.48,156.57-47.23,10.27-25.67,14.37-36.45,18.99-48.77,5.65-15.4-11.8-25.16-24.13-25.16-46.2,0-86.75,45.69-45.17,63.14l-16.94,15.91c-38.5-1.54-19.51-45.17,21.05-69.81,50.82-30.8,89.32-11.81,80.08,11.81l-39.53,103.69c-43.12,117.04-40.55,231.51,7.19,231.51,23.61,0,32.34-24.13,32.34-47.23,0-20.53-7.7-36.45-19.51-49.79l5.13-22.59c10.78,14.89,17.45,35.93,17.45,66.73,0,32.85-10.78,65.19-32.34,65.19-26.18,0-61.6-67.24-48.25-159.13v.02ZM-1986.56,2396.25l20.53-51.33c-93.94,22.59-143.73,46.2-153.48,70.33-17.97,44.15,22.59,101.64,58.52,101.64,54.41,0,51.33-63.14,74.43-120.63h0Z"/>
        <path class="st12" d="M-2194.66,2409.47l-15.91-15.91c-1.03-1.03-2.05-3.08-2.05-4.62v-179.66c0-4.11-3.59-7.7-7.7-7.7h-131.93c-10.78,0-15.4,11.29-7.7,18.99l80.59,80.6c7.7,7.7,18.99,3.08,18.99-7.7v-50.82c0-4.11-3.59-7.7-7.7-7.7h-10.78c-11.29,0-17.45,10.27-10.78,16.43l15.91,14.88c1.54,1.54,2.05,3.08,2.05,4.62,0,7.19-10.78,7.7-18.48.51l-37.47-35.42c-8.22-7.7-3.08-19.51,7.7-19.51h80.59c4.11,0,7.7,3.59,7.7,7.7v121.66c0,10.78-11.29,15.4-18.99,7.7l-156.57-156.57c-7.7-7.7-3.08-18.99,7.7-18.99h420.93c10.78,0,15.4,11.3,7.7,18.99l-156.56,156.57c-7.7,7.7-18.99,3.08-18.99-7.7v-121.66c0-4.11,3.59-7.7,7.7-7.7h80.6c10.78,0,15.91,11.81,7.7,19.51l-37.47,35.42c-7.7,7.18-18.48,6.67-18.48-.51,0-1.54.51-3.08,2.05-4.62l15.91-14.88c6.67-6.16.51-16.43-10.78-16.43h-10.78c-4.11,0-7.7,3.59-7.7,7.7v50.82c0,10.78,11.29,15.4,18.99,7.7l80.59-80.6c7.7-7.7,3.08-18.99-7.7-18.99h-131.93c-4.11,0-7.7,3.59-7.7,7.7v179.66c0,1.54-1.03,3.59-2.05,4.62l-15.91,15.91c-1.54,1.54-3.59,2.57-5.65,2.57s-4.11-1.03-5.65-2.57h0ZM-2421.22,2680.57l2.57-2.57c8.21,2.57,15.91,4.62,22.59,4.62,52.87,0,65.19-27.2,103.69-65.71,21.05-21.04,44.66-42.61,61.09-69.3,4.62-9.24,12.83-18.99,23.1-39.01-11.29-3.59-25.67-4.62-47.23,1.54l2.05-2.05c37.47-9.24,41.07-16.94,52.36-13.35,7.7-15.4,15.91-35.42,25.15-62.11l3.59,3.59c-11.29,26.69-20.02,45.17-26.18,59.03,25.15,9.76,47.23,49.28,99.58,14.89l2.57,2.05c-69.81,34.4-81.11,8.22-108.83-2.57-17.45,33.88-10.78,33.37.51,95.48,15.91,87.78,100.61,71.35,154,67.76,53.38-3.59,55.44,3.08,60.06,8.22l-4.11,1.03c-8.73-6.16-31.83-11.3-71.35-3.59-39.53,7.7-141.68,22.59-158.62-46.71-9.75-40.55-13.35-58.52-10.78-71.35-34.4,37.47-33.88,50.82-40.04,66.21-4.62,13.35-3.59,15.4-2.05,30.8.51,7.7,1.54,16.94-2.57,16.94-3.59,0-2.57-9.24-1.02-17.45,2.57-14.37,2.57-21.56-5.65-11.8-29.77,39.53-49.79,39.53-93.94,41.06-13.86.51-29.26-3.08-40.55-5.65h0ZM-2162.5,2554.29c1.54-9.75,3.08-15.4.51-21.04-2.57-6.16-10.27-5.14-25.15-14.38,6.16.51,45.17,8.22,58.01,6.67-18.48,4.62-26.18,6.67-28.75,12.32-2.05,3.59-1.54,8.73,0,16.94.51,3.08.51,9.24-2.05,9.24-3.08,0-3.08-4.62-2.57-9.75h0Z"/>
      </g>
    </g>
  </g>
</svg>