<?xml version="1.0" encoding="UTF-8"?>
<svg id="Calque_1" xmlns="http://www.w3.org/2000/svg" version="1.1" viewBox="0 0 944.02 908">
  <!-- Generator: Adobe Illustrator 29.8.2, SVG Export Plug-In . SVG Version: 2.1.1 Build 3)  -->
  <defs>
    <style>
      .st0, .st1, .st2, .st3, .st4, .st5 {
        isolation: isolate;
      }

      .st0, .st2, .st3, .st4, .st5 {
        font-family: ArialMT, Arial;
        font-size: 195px;
      }

      .st0, .st6 {
        fill: #f8eee5;
      }

      .st7 {
        fill: #ff99ec;
      }

      .st8, .st2 {
        fill: #fc4c14;
      }

      .st9 {
        fill: #0e5100;
      }

      .st10 {
        fill: blue;
      }

      .st11 {
        fill: #27660b;
      }

      .st12 {
        fill: #ded10e;
      }

      .st3 {
        fill: #dc92b4;
      }

      .st4 {
        fill: #edff42;
      }

      .st13 {
        display: none;
      }

      .st5 {
        fill: #fff;
      }
    </style>
  </defs>
  <rect class="st6" x="-7940.51" y="4907.44" width="1366" height="912"/>
  <g class="st1">
    <g class="st1">
      <g class="st1">
        <g class="st1">
          <g class="st1">
            <text class="st2" transform="translate(-7552.73 5432.58)"><tspan x="0" y="0">ALN</tspan></text>
          </g>
        </g>
      </g>
    </g>
  </g>
  <rect class="st11" x="-7940.51" y="6949.44" width="1366" height="912"/>
  <g class="st1">
    <g class="st1">
      <g class="st1">
        <g class="st1">
          <g class="st1">
            <text class="st3" transform="translate(-7552.73 7474.58)"><tspan x="0" y="0">ALN</tspan></text>
          </g>
        </g>
      </g>
    </g>
  </g>
  <rect class="st10" x="-4993.51" y="6949.44" width="1366" height="912"/>
  <g class="st1">
    <g class="st1">
      <g class="st1">
        <g class="st1">
          <g class="st1">
            <text class="st4" transform="translate(-4605.73 7474.58)"><tspan x="0" y="0">ALN</tspan></text>
          </g>
        </g>
      </g>
    </g>
  </g>
  <g class="st13">
    <rect class="st12" x="-3479.51" y="5918.44" width="1366" height="912"/>
  </g>
  <rect class="st8" x="-6472.51" y="6949.44" width="1366" height="912"/>
  <g class="st1">
    <g class="st1">
      <g class="st1">
        <g class="st1">
          <g class="st1">
            <text class="st0" transform="translate(-6084.73 7474.58)"><tspan x="0" y="0">ALN</tspan></text>
          </g>
        </g>
      </g>
    </g>
  </g>
  <rect class="st10" x="-7940.51" y="5918.44" width="1366" height="912"/>
  <g class="st1">
    <g class="st1">
      <g class="st1">
        <g class="st1">
          <g class="st1">
            <text class="st5" transform="translate(-7552.73 6443.58)"><tspan x="0" y="0">ALN</tspan></text>
          </g>
        </g>
      </g>
    </g>
  </g>
  <g>
    <rect class="st9" x="1.08" y="-4.31" width="941.87" height="912"/>
    <g>
      <path class="st7" d="M282.18,401.34c-23.9-76.01-66.21-140.38-108.5-140.38-52.72,0-32.49,140.38,38.62,108.5l1.23,1.23-74.79,74.79V173.31l1.84-1.23c71.11,71.11,152.64,161.22,218.23,338.99l49.65-66.82,16.55,16.55-138.54,151.41-4.29-4.29c19.01-28.81,23.29-74.79,17.78-124.44-55.17,76.01-99.92,243.98-134.86,243.98-44.75,0-47.2-246.43,117.08-326.12h0ZM298.73,474.3c-3.07-20.84-7.35-41.68-13.49-61.91-72.33,34.33-120.15,120.76-120.15,189.42,0,15.94,8.59,32.49,21.46,32.49,41.68,0,67.43-101.76,112.18-160h0ZM702.48,506.78c-18.99,52.39-41.91,74.65-66.79,74.65-39.95,0-127.04-139.49-77.27-187.29,15.72-15.06,51.73-23.58,199.74-60.25,13.1-32.74,18.34-46.49,24.23-62.21,7.2-19.65-15.06-32.1-30.77-32.1-58.94,0-110.67,58.29-57.63,80.55l-21.61,20.3c-49.11-1.96-24.88-57.63,26.85-89.06,64.83-39.29,113.94-15.06,102.16,15.06l-50.43,132.28c-55.01,149.31-51.73,295.34,9.17,295.34,30.12,0,41.25-30.78,41.25-60.25,0-26.19-9.82-46.49-24.88-63.53l6.55-28.81c13.75,19,22.26,45.84,22.26,85.13,0,41.91-13.75,83.16-41.25,83.16-33.4,0-78.59-85.78-61.55-203h0l-.03.03ZM730.64,403.31l26.19-65.48c-119.83,28.81-183.36,58.94-195.8,89.72-22.92,56.32,28.81,129.66,74.65,129.66,69.41,0,65.49-80.54,94.96-153.89h0Z"/>
      <path class="st7" d="M465.17,420.17l-20.3-20.3c-1.31-1.31-2.62-3.93-2.62-5.9v-229.19c0-5.24-4.58-9.82-9.82-9.82h-168.3c-13.75,0-19.65,14.41-9.82,24.23l102.81,102.82c9.82,9.82,24.23,3.93,24.23-9.82v-64.83c0-5.24-4.58-9.82-9.82-9.82h-13.76c-14.41,0-22.26,13.1-13.76,20.96l20.3,18.99c1.96,1.97,2.62,3.93,2.62,5.9,0,9.17-13.76,9.82-23.58.66l-47.81-45.19c-10.48-9.82-3.93-24.88,9.82-24.88h102.82c5.24,0,9.82,4.58,9.82,9.82v155.2c0,13.76-14.41,19.65-24.23,9.82l-199.74-199.74c-9.82-9.82-3.93-24.23,9.82-24.23h536.98c13.75,0,19.65,14.41,9.82,24.23l-199.73,199.74c-9.82,9.82-24.23,3.93-24.23-9.82v-155.2c0-5.24,4.58-9.82,9.82-9.82h102.82c13.75,0,20.3,15.06,9.82,24.88l-47.81,45.19c-9.82,9.17-23.58,8.52-23.58-.66,0-1.97.65-3.93,2.62-5.9l20.3-18.99c8.52-7.86.66-20.96-13.76-20.96h-13.75c-5.24,0-9.82,4.58-9.82,9.82v64.83c0,13.76,14.41,19.65,24.23,9.82l102.82-102.82c9.82-9.82,3.93-24.23-9.82-24.23h-168.3c-5.24,0-9.82,4.58-9.82,9.82v229.19c0,1.96-1.31,4.58-2.62,5.9l-20.3,20.3c-1.96,1.96-4.58,3.28-7.2,3.28s-5.24-1.31-7.2-3.28h.03ZM176.14,766.02l3.28-3.28c10.48,3.28,20.3,5.89,28.82,5.89,67.44,0,83.16-34.7,132.28-83.82,26.85-26.85,56.97-54.35,77.93-88.4,5.9-11.79,16.37-24.23,29.47-49.77-14.41-4.58-32.74-5.89-60.25,1.97l2.62-2.62c47.81-11.79,52.39-21.61,66.79-17.03,9.82-19.65,20.3-45.19,32.09-79.24l4.58,4.58c-14.41,34.05-25.54,57.63-33.4,75.31,32.09,12.44,60.25,62.87,127.04,19l3.28,2.62c-89.06,43.88-103.46,10.48-138.83-3.28-22.26,43.22-13.75,42.57.66,121.8,20.3,111.98,128.35,91.02,196.46,86.44,68.1-4.58,70.72,3.93,76.62,10.48l-5.24,1.31c-11.14-7.86-40.6-14.41-91.02-4.58-50.43,9.82-180.74,28.81-202.35-59.59-12.44-51.73-17.03-74.65-13.75-91.02-43.88,47.8-43.22,64.82-51.08,84.47-5.9,17.03-4.58,19.65-2.62,39.29.66,9.82,1.96,21.61-3.28,21.61-4.58,0-3.28-11.79-1.31-22.26,3.28-18.33,3.28-27.5-7.2-15.06-37.98,50.43-63.53,50.43-119.84,52.39-17.68.66-37.33-3.93-51.73-7.2h-.02ZM506.19,604.92c1.96-12.44,3.93-19.65.66-26.85-3.28-7.86-13.1-6.55-32.09-18.34,7.86.66,57.63,10.48,74,8.52-23.58,5.9-33.4,8.52-36.67,15.71-2.62,4.58-1.96,11.14,0,21.61.66,3.93.66,11.79-2.62,11.79-3.93,0-3.93-5.89-3.28-12.44h0Z"/>
    </g>
  </g>
</svg>